<?xml version="1.0" encoding="UTF-8" standalone="no"?>
<!-- Created with Inkscape (http://www.inkscape.org/) -->

<svg
   xmlns:dc="http://purl.org/dc/elements/1.1/"
   xmlns:cc="http://creativecommons.org/ns#"
   xmlns:rdf="http://www.w3.org/1999/02/22-rdf-syntax-ns#"
   xmlns:svg="http://www.w3.org/2000/svg"
   xmlns="http://www.w3.org/2000/svg"
   xmlns:sodipodi="http://sodipodi.sourceforge.net/DTD/sodipodi-0.dtd"
   xmlns:inkscape="http://www.inkscape.org/namespaces/inkscape"
   width="210mm"
   height="297mm"
   viewBox="0 0 744.09448819 1052.3622047"
   id="svg4269"
   version="1.1"
   inkscape:version="0.91 r13725"
   sodipodi:docname="basic_arc_base.svg">
  <defs
     id="defs4271" />
  <sodipodi:namedview
     id="base"
     pagecolor="#ffffff"
     bordercolor="#666666"
     borderopacity="1.0"
     inkscape:pageopacity="0.0"
     inkscape:pageshadow="2"
     inkscape:zoom="1.52"
     inkscape:cx="366.36612"
     inkscape:cy="834.7434"
     inkscape:document-units="px"
     inkscape:current-layer="layer1"
     showgrid="false"
     inkscape:window-width="1920"
     inkscape:window-height="1015"
     inkscape:window-x="0"
     inkscape:window-y="0"
     inkscape:window-maximized="1" />
  <metadata
     id="metadata4274">
    <rdf:RDF>
      <cc:Work
         rdf:about="">
        <dc:format>image/svg+xml</dc:format>
        <dc:type
           rdf:resource="http://purl.org/dc/dcmitype/StillImage" />
        <dc:title></dc:title>
      </cc:Work>
    </rdf:RDF>
  </metadata>
  <g
     inkscape:label="Layer 1"
     inkscape:groupmode="layer"
     id="layer1">
    <circle
       style="fill:#c8beb7;fill-opacity:1;stroke:#000000;stroke-width:1.20000005;stroke-linecap:square;stroke-miterlimit:4;stroke-dasharray:none;stroke-opacity:1"
       id="path4817"
       cx="365.80829"
       cy="221.53513"
       r="187.14285"
       inkscape:export-filename="/home/martin/basic_arc.png"
       inkscape:export-xdpi="600"
       inkscape:export-ydpi="600" />
    <circle
       style="fill:#ffff00;fill-opacity:1;stroke:#000000;stroke-width:1.20000005;stroke-linecap:square;stroke-miterlimit:4;stroke-dasharray:none;stroke-opacity:1"
       id="path4819"
       cx="360.52631"
       cy="218.80957"
       r="14.473684"
       inkscape:export-filename="/home/martin/basic_arc.png"
       inkscape:export-xdpi="600"
       inkscape:export-ydpi="600" />
    <circle
       style="fill:#ffffff;fill-opacity:1;stroke:#000000;stroke-width:1.20000005;stroke-linecap:square;stroke-miterlimit:4;stroke-dasharray:none;stroke-opacity:1"
       id="path4821"
       cx="484.86844"
       cy="162.88852"
       r="6.5789475"
       inkscape:export-filename="/home/martin/basic_arc.png"
       inkscape:export-xdpi="600"
       inkscape:export-ydpi="600" />
    <text
       xml:space="preserve"
       style="font-style:normal;font-weight:normal;font-size:40px;line-height:125%;font-family:sans-serif;letter-spacing:0px;word-spacing:0px;fill:#000000;fill-opacity:1;stroke:none;stroke-width:1px;stroke-linecap:butt;stroke-linejoin:miter;stroke-opacity:1"
       x="546.75934"
       y="413.48203"
       id="text4193"
       sodipodi:linespacing="125%"
       inkscape:export-xdpi="600"
       inkscape:export-ydpi="600"
       inkscape:export-filename="/home/martin/basic_arc.png"><tspan
         sodipodi:role="line"
         id="tspan4195"
         x="546.75934"
         y="413.48203">Power</tspan></text>
    <text
       xml:space="preserve"
       style="font-style:normal;font-weight:normal;font-size:40px;line-height:125%;font-family:sans-serif;letter-spacing:0px;word-spacing:0px;fill:#000000;fill-opacity:1;stroke:none;stroke-width:1px;stroke-linecap:butt;stroke-linejoin:miter;stroke-opacity:1"
       x="571.51178"
       y="445.16516"
       id="text4221"
       sodipodi:linespacing="125%"
       inkscape:export-xdpi="600"
       inkscape:export-ydpi="600"
       inkscape:export-filename="/home/martin/basic_arc.png"><tspan
         sodipodi:role="line"
         id="tspan4223"
         x="571.51178"
         y="445.16516"
         style="font-size:30px">50%</tspan></text>
    <text
       xml:space="preserve"
       style="font-style:normal;font-weight:normal;font-size:40px;line-height:125%;font-family:sans-serif;letter-spacing:0px;word-spacing:0px;fill:#000000;fill-opacity:1;stroke:none;stroke-width:1px;stroke-linecap:butt;stroke-linejoin:miter;stroke-opacity:1"
       x="26.733143"
       y="369.63544"
       id="text4189"
       sodipodi:linespacing="125%"
       inkscape:export-xdpi="600"
       inkscape:export-ydpi="600"
       inkscape:export-filename="/home/martin/basic_arc.png"><tspan
         sodipodi:role="line"
         id="tspan4191"
         x="26.733143"
         y="369.63544">Distance</tspan></text>
    <text
       xml:space="preserve"
       style="font-style:normal;font-weight:normal;font-size:40px;line-height:125%;font-family:sans-serif;letter-spacing:0px;word-spacing:0px;fill:#000000;fill-opacity:1;stroke:none;stroke-width:1px;stroke-linecap:butt;stroke-linejoin:miter;stroke-opacity:1"
       x="85.148994"
       y="406.2691"
       id="text4217"
       sodipodi:linespacing="125%"
       inkscape:export-xdpi="600"
       inkscape:export-ydpi="600"
       inkscape:export-filename="/home/martin/basic_arc.png"><tspan
         sodipodi:role="line"
         id="tspan4219"
         x="85.148994"
         y="406.2691"
         style="font-size:30px">5 m</tspan></text>
    <path
       sodipodi:type="star"
       style="fill:#00ff00;fill-opacity:1;stroke:#000000;stroke-width:1.20000005;stroke-linecap:square;stroke-miterlimit:4;stroke-dasharray:none;stroke-opacity:1"
       id="path4235"
       sodipodi:sides="3"
       sodipodi:cx="95.360583"
       sodipodi:cy="66.329821"
       sodipodi:r1="44.565456"
       sodipodi:r2="22.282728"
       sodipodi:arg1="0.022218565"
       sodipodi:arg2="1.0694161"
       inkscape:flatsided="true"
       inkscape:rounded="0"
       inkscape:randomized="0"
       d="M 139.91504,67.319918 72.225901,104.42006 73.940803,27.249478 Z"
       inkscape:transform-center-x="-10.709888"
       inkscape:transform-center-y="-0.4950495"
       inkscape:export-xdpi="600"
       inkscape:export-ydpi="600"
       inkscape:export-filename="/home/martin/basic_arc.png" />
    <path
       sodipodi:type="star"
       style="fill:#ff0000;fill-opacity:1;stroke:#000000;stroke-width:1.20000005;stroke-linecap:square;stroke-miterlimit:4;stroke-dasharray:none;stroke-opacity:1"
       id="path4237"
       sodipodi:sides="8"
       sodipodi:cx="-55.909597"
       sodipodi:cy="67.378574"
       sodipodi:r1="42.122868"
       sodipodi:r2="38.916454"
       sodipodi:arg1="0.41106455"
       sodipodi:arg2="0.80376363"
       inkscape:flatsided="true"
       inkscape:rounded="0"
       inkscape:randomized="0"
       d="m -17.295733,84.210254 -23.211536,22.374236 -32.23401,-0.59206 -22.374238,-23.211533 0.592059,-32.23401 23.211536,-22.374238 32.23401,0.592059 22.374238,23.211536 z"
       inkscape:export-xdpi="600"
       inkscape:export-ydpi="600"
       inkscape:export-filename="/home/martin/basic_arc_forward_running.png" />
    <path
       style="fill:#000000;fill-opacity:1;stroke:#000000;stroke-width:1.20000005;stroke-linecap:square;stroke-miterlimit:4;stroke-dasharray:none;stroke-opacity:1"
       d="m 582.0112,27.569436 47.83593,-0.990099 -15.84159,319.999983 -7.24187,0 z"
       id="rect4138-3-3"
       inkscape:connector-curvature="0"
       sodipodi:nodetypes="ccccc"
       inkscape:export-xdpi="600"
       inkscape:export-ydpi="600"
       inkscape:export-filename="/home/martin/basic_arc.png" />
    <rect
       style="fill:#00807b;fill-opacity:1;stroke:#000000;stroke-width:1.20000005;stroke-linecap:square;stroke-miterlimit:4;stroke-dasharray:none;stroke-opacity:1"
       id="rect4136-6"
       width="60"
       height="34.285713"
       x="577.81329"
       y="164.12129"
       inkscape:export-xdpi="600"
       inkscape:export-ydpi="600"
       inkscape:export-filename="/home/martin/basic_arc.png" />
    <path
       style="fill:#000080;fill-opacity:1;stroke:#000000;stroke-width:1.20000005;stroke-linecap:square;stroke-miterlimit:4;stroke-dasharray:none;stroke-opacity:1"
       id="path4935"
       d="m 340.78564,204.68536 c 0.26827,-2.5693 -0.29362,-5.09307 -0.76605,-7.60061 -0.16911,-1.21035 -0.46201,-2.39849 -0.93353,-3.52645 -0.24368,-0.59911 -0.30424,-1.23077 -0.3165,-1.87026 0.005,-0.86839 0.0139,-1.73684 -0.007,-2.60508 0.003,-0.99972 0.0407,-1.99999 0.0482,-3.00033 -0.0178,-1.22379 -0.0119,-2.44776 -0.01,-3.67164 0.0141,-1.09092 -0.0165,-2.18157 -0.0211,-3.27237 -0.0152,-0.92722 -0.002,-1.85312 0.0216,-2.78019 0.0381,-1.72163 0.0528,-3.44414 0.0197,-5.16597 -0.0126,-1.23618 -0.024,-2.47239 -0.0319,-3.70858 10e-4,-1.15307 0.008,-2.30612 0.012,-3.45918 0.01,-1.23774 0.28859,-2.43928 0.73093,-3.5884 0.5755,-0.99125 0.96382,-2.06983 1.55282,-3.05341 0.60736,-1.15184 1.13005,-2.35017 1.66778,-3.53692 0.58457,-1.25831 1.19894,-2.49534 1.88673,-3.69952 0.51015,-0.91956 1.28771,-1.66341 1.65792,-2.6555 0.58165,-0.69524 1.15963,-1.39316 1.68988,-2.12958 0.47806,-0.93539 0.80088,-1.92491 1.29383,-2.85573 0.78686,-1.64894 1.78274,-3.16784 2.83207,-4.65774 0.88229,-1.29374 1.7514,-2.59606 2.63437,-3.88914 0.6815,-0.90795 1.43028,-1.76553 2.15426,-2.64162 3.62675,-4.47341 11.89702,-7.31137 15.13924,-9.14801 1.85817,-1.0526 -0.75457,0.87134 0.85386,-0.36757 -23.86826,14.73938 -15.8909,9.44604 -10.80364,5.91864 5.44476,-3.97482 11.39904,-7.15656 17.34204,-10.35667 1.16351,-0.44866 2.42649,-0.63175 3.66553,-0.745 1.07715,-0.34436 2.12675,-0.75309 3.19684,-1.13502 1.1806,-0.42699 -0.56199,0.15857 0.8435,-0.14317 0.15415,-0.0331 0.29004,-0.12374 0.43506,-0.1856 0.17709,-0.0466 0.35122,-0.1064 0.53127,-0.13979 1.29097,-0.23946 0.0559,0.1205 1.34806,-0.307 1.73124,-0.39467 3.45702,-0.82018 5.21498,-1.09468 1.02032,-0.34008 2.14467,-0.39315 3.11942,-0.86639 0.21573,-0.10473 0.41466,-0.24103 0.62199,-0.36155 0.21875,-0.10127 0.43751,-0.20254 0.65627,-0.3038 1.24866,-0.76664 2.52743,-1.42677 3.95827,-1.76735 1.05201,-0.20621 2.00845,-0.70128 3.04617,-1.01024 1.84028,-0.19466 3.6473,-0.50606 5.46185,-0.8714 1.56483,-0.3146 3.16609,-0.29317 4.75434,-0.31142 1.71006,6.4e-4 3.42012,-0.007 5.13017,-0.01 1.9236,0.19809 3.73449,-0.42039 5.59291,-0.80013 1.52078,-0.19809 3.02558,-0.54837 4.5642,-0.52437 1.56167,7.1e-4 3.12335,0.016 4.68501,0.004 1.24995,-0.01 2.49996,0.005 3.74987,-0.007 1.61939,0.0111 3.23872,0.032 4.85824,0.0425 1.68618,-0.009 3.37233,-0.0319 5.05855,-0.0236 1.62772,0.001 3.25538,0.006 4.88311,0.001 1.86483,0.0131 3.72954,0.0272 5.59433,0.003 1.0401,-0.20701 1.86605,0.2635 2.81709,0.56408 0.6652,0.29326 1.17105,0.83719 1.817,1.19086 0.75725,0.13654 1.39873,0.49582 2.08435,0.82824 0.92911,0.27371 1.62867,1.11255 2.55952,1.35365 0.90558,0.61633 1.79027,1.26156 2.66073,1.94273 1.21372,0.8583 2.19905,1.9639 3.3093,2.93793 0.65821,0.47927 1.29293,0.9635 1.97225,1.42095 0.59972,0.37401 1.0898,0.91591 1.52238,1.47703 0.49852,0.6936 0.90562,1.44835 1.35715,2.17482 0.65898,1.21665 1.43241,2.34579 2.25881,3.45052 0.89507,1.10974 1.66709,2.30612 2.55831,3.41942 0.73654,0.90157 1.16041,1.92882 1.44257,3.04411 -0.007,0.51001 0.26827,0.80898 0.47685,1.23215 0.29822,0.74932 0.25888,1.55764 0.30463,2.34712 0.15242,0.7353 0.39153,1.44887 0.53947,2.18547 0.0156,0.62515 0.3275,1.16689 0.50787,1.75407 0.0819,0.48394 0.29731,0.90754 0.56317,1.31346 0.23922,0.45951 0.32737,0.95578 0.37486,1.46493 0.004,0.0517 0.0472,0.19421 0.0132,0.15507 -0.0779,-0.0895 -0.12022,-0.20671 -0.15634,-0.31971 -0.0216,-0.0675 0.0737,0.12093 0.11187,0.18061 0.0957,0.14977 0.19744,0.29558 0.29912,0.4413 0.0513,0.1153 0.1026,0.23061 0.1539,0.34591 0,0 -14.34791,7.93751 -14.34791,7.93751 l 0,0 c 0.0106,4.4e-4 0.0212,8.9e-4 0.0317,0.001 -0.23488,-0.38224 -0.65563,-0.80653 -0.68836,-1.24299 0.007,-0.25262 0.0194,-0.50578 0.01,-0.75624 -0.29067,-0.54638 -0.62192,-1.11181 -0.74402,-1.71849 -0.13181,-0.66199 -0.55893,-1.23229 -0.5975,-1.90715 -0.0636,-0.74754 -0.29221,-1.46579 -0.47472,-2.19008 -0.15571,-0.63993 -0.19619,-1.28489 -0.18386,-1.9431 -0.26135,-0.48835 -0.62178,-1.00764 -0.61896,-1.5858 -0.10473,-0.90845 -0.39639,-1.69924 -0.97718,-2.42418 -0.86343,-1.14762 -1.71576,-2.30316 -2.58183,-3.44878 -0.837,-1.14462 -1.60178,-2.32872 -2.38365,-3.51119 -0.42342,-0.65491 -0.77784,-1.35673 -1.24403,-1.98194 -0.40634,-0.4113 -0.81139,-0.79867 -1.3003,-1.10733 -0.72234,-0.51023 -1.39807,-1.06744 -2.06391,-1.65056 -1.00021,-0.99839 -1.9868,-2.01069 -3.15991,-2.81342 -0.83035,-0.58505 -1.68268,-1.1614 -2.59139,-1.61054 -0.79609,-0.50651 -1.58911,-1.0173 -2.48323,-1.34019 -0.76056,-0.29866 -1.53777,-0.55186 -2.2361,-0.9859 -0.52559,-0.34584 -0.99276,-0.75864 -1.62504,-0.86428 -0.80068,-0.26511 -1.56386,-0.23967 -2.40864,-0.2285 -1.86742,-0.0252 -3.73479,-0.009 -5.60226,0.003 -1.62879,-0.005 -3.25751,-2.5e-4 -4.8863,0.001 -1.66467,0.008 -3.32927,-0.0138 -4.9939,-0.0235 -1.65849,0.0104 -3.31684,0.0317 -4.97521,0.0404 -1.23744,-0.0151 -2.47508,-0.004 -3.71253,-0.0208 -1.55016,-0.0175 -3.10311,-0.0187 -4.65072,0.0803 -1.44964,0.17825 -2.90382,0.34407 -4.33226,0.65657 -1.93607,0.4034 -3.86281,0.70429 -5.85084,0.57791 -1.69497,-0.009 -3.39067,-0.0256 -5.08504,0.0303 -1.54362,0.06 -3.08013,0.19254 -4.59395,0.51608 -1.80715,0.31333 -3.66331,0.47934 -5.39787,1.09847 -0.99999,0.36414 -1.98713,0.72635 -3.01976,0.98551 -1.31306,0.56916 -2.52984,1.33291 -3.84885,1.89034 -1.46538,0.62843 -3.04635,0.8849 -4.60399,1.19299 -1.73375,0.34916 -3.4557,0.76173 -5.1601,1.23349 -1.06844,0.23239 -2.1238,0.53206 -3.14523,0.90355 -1.11307,0.36935 -2.22273,0.79133 -3.40185,0.88517 -1.14659,0.21076 -2.26773,0.54215 -3.25678,1.17943 -5.08037,2.79382 -0.90902,0.50604 12.77613,-7.46128 0.1883,-0.10963 -0.38499,0.20649 -0.56285,0.33234 -0.38821,0.2747 -0.74163,0.59602 -1.125,0.87745 -0.21872,0.16056 -0.43743,0.32115 -0.65615,0.48172 -5.69017,3.73899 -9.13974,7.96762 -17.03258,10.21246 -0.29633,0.0946 -1.1115,0.55747 -0.84233,0.40157 25.13237,-14.55571 17.6567,-9.48621 12.62833,-7.44986 -0.77572,0.84279 -1.44857,1.78161 -2.30406,2.54423 -0.95763,1.24659 -1.7513,2.60644 -2.70245,3.86018 -0.96614,1.49634 -2.14094,2.87489 -2.88361,4.5036 -0.2313,0.42314 -0.52958,0.80996 -0.7335,1.24695 -0.22095,0.47351 -0.19881,1.07344 -0.47354,1.53253 -0.34007,0.92732 -0.90873,1.66739 -1.50612,2.437 -0.78724,0.34882 -1.01879,1.97227 -1.82208,2.491 -0.76797,1.12627 -1.44564,2.29769 -1.96867,3.5599 -0.62035,1.15184 -1.12522,2.36836 -1.60812,3.58122 -0.50396,1.01829 -1.19252,1.94249 -1.54517,3.03854 -0.64402,0.85182 -0.90233,1.83801 -1.09965,2.87645 0.004,1.14897 0.011,2.29792 0.0121,3.4469 -0.008,1.24704 -0.0194,2.4941 -0.0319,3.74113 -0.0323,1.71514 -0.0194,3.43095 0.0197,5.14588 0.0242,0.91972 0.0366,1.83826 0.0216,2.75816 -0.005,1.09795 -0.035,2.19576 -0.021,3.29383 0.002,1.22734 0.008,2.45478 -0.01,3.68204 0.007,0.98697 0.0458,1.9741 0.0418,2.96043 -0.0261,0.85836 -0.0281,1.71741 -0.0106,2.57598 0.007,0.46261 -0.0268,0.93232 0.0758,1.38659 0.40032,1.2661 0.74518,2.56257 0.88568,3.885 0.38878,2.58976 0.91457,5.16964 0.98004,7.79536 0,0 -14.48135,7.37862 -14.48135,7.37862 z"
       inkscape:connector-curvature="0" />
    <path
       style="fill:#000080;fill-opacity:1;stroke:#000000;stroke-width:1.20000005;stroke-linecap:square;stroke-miterlimit:4;stroke-dasharray:none;stroke-opacity:1"
       id="path4937"
       d="m 463.39002,135.68454 c 2.75544,1.37157 5.51494,2.74017 8.39469,3.83623 1.78626,0.67237 3.68233,0.82655 5.57204,0.86923 1.37204,0.30801 2.76179,0.48551 4.16388,0.56794 1.59281,0.0655 3.18741,0.0613 4.78125,0.0708 1.36775,-8.1e-4 2.7356,-0.0171 4.10314,-0.0414 0.64042,-0.0142 1.2812,-0.0176 1.92176,-0.0124 0.51642,0.27724 0.92607,0.76246 1.54561,0.69166 0.11129,-0.009 0.22226,-0.0242 0.33388,-0.0269 0.34794,-0.008 0.65971,0.0751 0.97733,-0.15029 0.16381,-0.11625 0.55688,-0.56404 0.38112,-0.4668 -12.0387,6.66047 -17.63536,10.72006 -12.7915,7.23364 1.04211,-0.81761 1.67518,-1.98645 2.42821,-3.04276 0.66746,-0.94473 1.05125,-2.04173 1.4641,-3.11154 0.38144,-0.92363 0.65144,-1.87527 1.07068,-2.7847 0.44928,-1.61353 1.25263,-3.09826 1.97835,-4.59924 0.91219,-1.89282 2.06637,-3.65309 3.13206,-5.46101 0.57043,-1.14296 1.32871,-2.17599 1.96953,-3.26901 0.20858,-0.29159 0.64042,-0.55157 0.76512,-0.90592 0.0406,-0.11546 0.002,-0.25688 0.066,-0.36123 0.0386,-0.0629 0.13717,-0.0546 0.20576,-0.0819 0.32629,-0.13215 0.20205,-0.34608 0.37444,-0.5815 0.15321,-0.20923 0.60309,-0.42409 0.84135,-0.5113 0.52224,-0.24358 0.66647,-0.97464 1.18666,-1.18221 0,0 14.9267,-6.74341 14.9267,-6.74341 l 0,0 c -0.0831,0.68355 -0.71177,1.06153 -0.99868,1.67841 -0.10425,0.20397 -0.46293,0.67644 -0.71026,0.74205 -0.33772,0.0896 -0.20859,-0.28848 -0.49752,0.29926 -0.293,0.6162 0.09,0.0342 -0.38409,0.16614 -0.12308,0.0342 -0.5767,1.04774 -0.72263,1.14393 -0.62232,0.4351 -0.0449,-0.0338 -0.57423,0.64746 -0.60607,0.78005 -1.3061,1.45691 -1.65582,2.42511 -1.12188,1.73676 -2.12567,3.54299 -3.20918,5.3021 -0.66539,1.42514 -1.37543,2.83064 -1.96622,4.28576 -0.16016,1.06394 -0.8033,1.92175 -1.00355,2.98013 -0.5028,1.10239 -0.8348,2.25797 -1.34339,3.35665 -0.68361,1.20433 -1.53485,2.31048 -2.30761,3.46781 -4.33796,4.86168 -10.7987,10.22058 -17.40616,8.86201 -0.39783,-0.1801 -0.88185,-0.63626 -1.31179,-0.38551 -0.62963,0.005 -1.25947,0.003 -1.88899,-0.009 -1.3358,-0.0206 -2.67184,-0.0318 -4.00778,-0.0373 -1.63881,-7e-4 -3.28025,-0.003 -4.91454,-0.14044 -1.37538,-0.15482 -2.73097,-0.44452 -4.11072,-0.5522 -1.97731,-0.18712 -3.93077,-0.56643 -5.74977,-1.39809 -2.8486,-1.26422 -5.62231,-2.70865 -8.55067,-3.78545 0,0 13.52142,-8.98489 13.52142,-8.98489 z"
       inkscape:connector-curvature="0" />
  </g>
</svg>
