<?xml version="1.0" encoding="UTF-8" standalone="no"?>
<!-- Created with Inkscape (http://www.inkscape.org/) -->

<svg
   xmlns:dc="http://purl.org/dc/elements/1.1/"
   xmlns:cc="http://creativecommons.org/ns#"
   xmlns:rdf="http://www.w3.org/1999/02/22-rdf-syntax-ns#"
   xmlns:svg="http://www.w3.org/2000/svg"
   xmlns="http://www.w3.org/2000/svg"
   xmlns:sodipodi="http://sodipodi.sourceforge.net/DTD/sodipodi-0.dtd"
   xmlns:inkscape="http://www.inkscape.org/namespaces/inkscape"
   width="210mm"
   height="297mm"
   viewBox="0 0 744.09448819 1052.3622047"
   id="svg4269"
   version="1.1"
   inkscape:version="0.91 r13725"
   sodipodi:docname="fused_arc_pivot_base.svg"
   inkscape:export-filename="/home/martin/fused_arc_pivot.eps"
   inkscape:export-xdpi="600"
   inkscape:export-ydpi="600">
  <defs
     id="defs4271" />
  <sodipodi:namedview
     id="base"
     pagecolor="#ffffff"
     bordercolor="#666666"
     borderopacity="1.0"
     inkscape:pageopacity="0.0"
     inkscape:pageshadow="2"
     inkscape:zoom="1.52"
     inkscape:cx="301.43904"
     inkscape:cy="872.66863"
     inkscape:document-units="px"
     inkscape:current-layer="layer1"
     showgrid="false"
     inkscape:window-width="1920"
     inkscape:window-height="1015"
     inkscape:window-x="0"
     inkscape:window-y="0"
     inkscape:window-maximized="1" />
  <metadata
     id="metadata4274">
    <rdf:RDF>
      <cc:Work
         rdf:about="">
        <dc:format>image/svg+xml</dc:format>
        <dc:type
           rdf:resource="http://purl.org/dc/dcmitype/StillImage" />
        <dc:title></dc:title>
      </cc:Work>
    </rdf:RDF>
  </metadata>
  <g
     inkscape:label="Layer 1"
     inkscape:groupmode="layer"
     id="layer1">
    <circle
       style="fill:#c8beb7;fill-opacity:1;stroke:#000000;stroke-width:1.20000005;stroke-linecap:square;stroke-miterlimit:4;stroke-dasharray:none;stroke-opacity:1"
       id="path4817"
       cx="361.20303"
       cy="221.53513"
       r="187.14285"
       inkscape:export-filename="/home/martin/fused_arc_pivot_more.eps"
       inkscape:export-xdpi="600"
       inkscape:export-ydpi="600" />
    <rect
       style="fill:#00ffff;fill-opacity:1;stroke:#000000;stroke-width:1.20000005;stroke-linecap:square;stroke-miterlimit:4;stroke-dasharray:none;stroke-opacity:1"
       id="rect4945"
       width="371.71054"
       height="48.684212"
       x="175.65788"
       y="193.80957"
       inkscape:export-filename="/home/martin/fused_arc_pivot_more.eps"
       inkscape:export-xdpi="600"
       inkscape:export-ydpi="600" />
    <circle
       style="fill:#ffff00;fill-opacity:1;stroke:#000000;stroke-width:1.20000005;stroke-linecap:square;stroke-miterlimit:4;stroke-dasharray:none;stroke-opacity:1"
       id="path4819"
       cx="355.92105"
       cy="218.80957"
       r="14.473684"
       inkscape:export-filename="/home/martin/fused_arc_pivot_more.eps"
       inkscape:export-xdpi="600"
       inkscape:export-ydpi="600" />
    <text
       xml:space="preserve"
       style="font-style:normal;font-weight:normal;font-size:40px;line-height:125%;font-family:sans-serif;letter-spacing:0px;word-spacing:0px;fill:#000000;fill-opacity:1;stroke:none;stroke-width:1px;stroke-linecap:butt;stroke-linejoin:miter;stroke-opacity:1"
       x="542.15405"
       y="413.48203"
       id="text4193"
       sodipodi:linespacing="125%"
       inkscape:export-xdpi="600"
       inkscape:export-ydpi="600"
       inkscape:export-filename="/home/martin/fused_arc_pivot_more.eps"><tspan
         sodipodi:role="line"
         id="tspan4195"
         x="542.15405"
         y="413.48203">Power</tspan></text>
    <text
       xml:space="preserve"
       style="font-style:normal;font-weight:normal;font-size:40px;line-height:125%;font-family:sans-serif;letter-spacing:0px;word-spacing:0px;fill:#000000;fill-opacity:1;stroke:none;stroke-width:1px;stroke-linecap:butt;stroke-linejoin:miter;stroke-opacity:1"
       x="572.82758"
       y="445.16516"
       id="text4221"
       sodipodi:linespacing="125%"
       inkscape:export-xdpi="600"
       inkscape:export-ydpi="600"
       inkscape:export-filename="/home/martin/fused_arc_pivot_more.eps"><tspan
         sodipodi:role="line"
         id="tspan4223"
         x="572.82758"
         y="445.16516"
         style="font-size:30px">50%</tspan></text>
    <text
       xml:space="preserve"
       style="font-style:normal;font-weight:normal;font-size:40px;line-height:125%;font-family:sans-serif;letter-spacing:0px;word-spacing:0px;fill:#000000;fill-opacity:1;stroke:none;stroke-width:1px;stroke-linecap:butt;stroke-linejoin:miter;stroke-opacity:1"
       x="22.12788"
       y="369.63544"
       id="text4189"
       sodipodi:linespacing="125%"
       inkscape:export-xdpi="600"
       inkscape:export-ydpi="600"
       inkscape:export-filename="/home/martin/fused_arc_pivot_more.eps"><tspan
         sodipodi:role="line"
         id="tspan4191"
         x="22.12788"
         y="369.63544">Distance</tspan></text>
    <text
       xml:space="preserve"
       style="font-style:normal;font-weight:normal;font-size:40px;line-height:125%;font-family:sans-serif;letter-spacing:0px;word-spacing:0px;fill:#000000;fill-opacity:1;stroke:none;stroke-width:1px;stroke-linecap:butt;stroke-linejoin:miter;stroke-opacity:1"
       x="64.096367"
       y="406.2691"
       id="text4217"
       sodipodi:linespacing="125%"
       inkscape:export-xdpi="600"
       inkscape:export-ydpi="600"
       inkscape:export-filename="/home/martin/fused_arc_pivot_more.eps"><tspan
         sodipodi:role="line"
         id="tspan4219"
         x="64.096367"
         y="406.2691"
         style="font-size:30px">0 m</tspan></text>
    <path
       sodipodi:type="star"
       style="fill:#00ff00;fill-opacity:1;stroke:#000000;stroke-width:1.20000005;stroke-linecap:square;stroke-miterlimit:4;stroke-dasharray:none;stroke-opacity:1"
       id="path4235"
       sodipodi:sides="3"
       sodipodi:cx="0.62373834"
       sodipodi:cy="-43.538602"
       sodipodi:r1="44.565456"
       sodipodi:r2="22.282728"
       sodipodi:arg1="0.022218565"
       sodipodi:arg2="1.0694161"
       inkscape:flatsided="true"
       inkscape:rounded="0"
       inkscape:randomized="0"
       d="m 45.178195,-42.548502 -67.689136,37.1001429 1.714902,-77.1705829 z"
       inkscape:transform-center-x="-10.709888"
       inkscape:transform-center-y="-0.4950495"
       inkscape:export-xdpi="600"
       inkscape:export-ydpi="600"
       inkscape:export-filename="/home/martin/basic_arc_turning.png" />
    <path
       sodipodi:type="star"
       style="fill:#ff0000;fill-opacity:1;stroke:#000000;stroke-width:1.20000005;stroke-linecap:square;stroke-miterlimit:4;stroke-dasharray:none;stroke-opacity:1"
       id="path4237"
       sodipodi:sides="8"
       sodipodi:cx="95.406196"
       sodipodi:cy="75.273308"
       sodipodi:r1="42.122868"
       sodipodi:r2="38.916454"
       sodipodi:arg1="0.41106455"
       sodipodi:arg2="0.80376363"
       inkscape:flatsided="true"
       inkscape:rounded="0"
       inkscape:randomized="0"
       d="M 134.02006,92.104992 110.80852,114.47923 78.574513,113.88717 56.200275,90.675634 56.792334,58.441624 80.00387,36.067386 l 32.23401,0.592059 22.37424,23.211536 z"
       inkscape:export-xdpi="600"
       inkscape:export-ydpi="600"
       inkscape:export-filename="/home/martin/fused_arc_pivot_more.eps" />
    <path
       style="fill:#000000;fill-opacity:1;stroke:#000000;stroke-width:1.20000005;stroke-linecap:square;stroke-miterlimit:4;stroke-dasharray:none;stroke-opacity:1"
       d="m 577.40594,27.569436 47.83593,-0.990099 -15.84159,319.999983 -7.24187,0 z"
       id="rect4138-3-3"
       inkscape:connector-curvature="0"
       sodipodi:nodetypes="ccccc"
       inkscape:export-xdpi="600"
       inkscape:export-ydpi="600"
       inkscape:export-filename="/home/martin/fused_arc_pivot_more.eps" />
    <rect
       style="fill:#00807b;fill-opacity:1;stroke:#000000;stroke-width:1.20000005;stroke-linecap:square;stroke-miterlimit:4;stroke-dasharray:none;stroke-opacity:1"
       id="rect4136-6"
       width="60"
       height="34.285713"
       x="573.20801"
       y="164.12129"
       inkscape:export-xdpi="600"
       inkscape:export-ydpi="600"
       inkscape:export-filename="/home/martin/fused_arc_pivot_more.eps" />
    <circle
       style="fill:#ffffff;fill-opacity:1;stroke:#000000;stroke-width:1.20000005;stroke-linecap:square;stroke-miterlimit:4;stroke-dasharray:none;stroke-opacity:1"
       id="path4821"
       cx="398.02631"
       cy="218.15166"
       r="6.5789475"
       inkscape:export-filename="/home/martin/fused_arc_pivot_more.eps"
       inkscape:export-xdpi="600"
       inkscape:export-ydpi="600" />
    <path
       style="fill:#ffff00;fill-opacity:1;stroke:#000000;stroke-width:1.20000005;stroke-linecap:square;stroke-miterlimit:4;stroke-dasharray:none;stroke-opacity:1"
       id="path4998"
       d="m 368.45533,60.898487 c 1.69966,0.280005 3.42091,0.401391 5.14052,0.471474 1.14015,0.116342 2.51506,0.225517 3.50818,0.845679 0.34086,0.333336 0.84069,0.308659 1.2353,0.491784 1.58488,0.735488 -0.73419,-0.197097 0.71737,0.370348 0.58947,0.247263 1.22729,0.297012 1.85808,0.303968 0.50928,-0.01631 1.01839,-0.03383 1.52821,-0.03366 0.78743,-0.0078 1.5748,0.0057 2.36217,0.01426 0.40231,0.126526 0.93784,-0.14941 1.33423,-0.01622 0.36433,0.122418 0.62013,0.413556 1.00728,0.522251 0.71477,0.183214 1.47829,0.14487 2.21356,0.15258 1.15542,0.04273 2.31373,-0.107246 3.44108,0.172093 1.19423,0.246352 2.37407,0.637866 3.48742,1.137698 1.18023,0.467885 2.34794,0.963628 3.46039,1.578621 1.07572,0.471144 2.20896,0.788642 3.27504,1.329653 1.41254,0.791289 2.84125,1.551824 4.27671,2.302411 1.29195,0.499012 2.41654,1.301905 3.60662,2.002694 1.88489,1.136968 3.81744,2.190964 5.63857,3.431959 0.74183,0.365853 1.65094,1.378292 2.55541,1.315755 0.66048,-0.157184 0.79833,0.18896 1.40356,0.452028 0.72149,0.489954 1.55491,0.887005 2.38799,1.158695 0.98766,0.471164 1.95507,0.996705 3.00946,1.301166 1.36685,0.500706 2.7168,1.052605 4.09216,1.533871 1.80506,0.959379 3.59396,1.946 5.4331,2.84153 1.06138,0.458305 2.04764,1.099346 3.04315,1.691695 1.1338,0.72778 2.32971,1.37113 3.55567,1.940661 1.18776,0.705586 2.47211,1.211429 3.67421,1.890612 1.05616,0.407152 2.03344,0.914214 3.04314,1.417974 0.74593,0.13992 1.24798,0.551649 1.85411,1.013426 0.54323,0.346972 1.10373,0.553029 1.63564,0.931106 0.1987,0.321921 0.55691,0.08284 0.80281,0.187175 0.0231,0.0098 0.57684,0.429964 0.63703,0.475464 0.70855,0.287946 1.37408,0.669738 2.07962,0.994333 1.25695,0.664127 2.5251,1.439562 3.57186,2.409767 0.72233,0.579298 1.51077,1.04772 2.23854,1.620018 1.00829,0.933714 2.25798,1.544884 3.34522,2.363344 0.62919,0.44041 1.07584,1.04617 1.61619,1.58318 0.81559,0.9491 1.8137,1.68731 2.77372,2.47841 1.18388,0.74991 2.21647,1.66851 3.17825,2.68155 0.89937,0.80557 1.84803,1.56502 2.82735,2.27107 1.52443,0.66431 2.92093,1.68934 3.93845,3.00482 0.69897,0.92296 0.97044,1.99104 1.05701,3.12227 0.0491,0.83044 0.0223,1.66257 0.0394,2.49402 0.0392,0.44584 -0.10643,0.92654 0.0523,1.34087 0.74873,1.18317 1.75921,2.17848 2.725,3.18355 1.21238,1.47506 2.46695,2.91189 3.76167,4.31482 0.97496,1.10491 2.24639,1.88476 3.27123,2.93708 0.77102,0.68196 1.44037,1.50241 1.99651,2.36827 0.64273,0.82459 1.00944,1.73709 1.32917,2.72082 0.55186,1.5864 1.35252,3.06295 2.00747,4.60505 0.44684,1.31914 1.09682,2.54022 1.8972,3.67522 0.74489,1.10028 1.3122,2.31333 2.04718,3.41778 0.77715,1.16347 1.3173,2.46151 1.86716,3.74226 0.53794,1.10428 0.95141,2.26287 1.39558,3.40686 0.34683,1.13696 0.69532,2.27169 1.05287,3.40539 0.37999,1.54172 0.79838,3.07652 1.14306,4.62701 0.21878,1.06357 0.23217,2.15265 0.59528,3.18175 0.16928,0.58939 0.58648,0.98284 0.82197,1.55261 0.30836,0.8061 0.22243,1.67824 0.40719,2.50898 0.18957,0.55165 0.2421,1.15758 0.52165,1.63925 0.49524,0.61577 0.95106,1.2844 1.48542,1.86397 0.42774,0.3983 0.7187,0.93136 0.99126,1.44493 0,0 -14.28714,8.07294 -14.28714,8.07294 l 0,0 c -0.15017,-0.42104 -0.39598,-0.78317 -0.70959,-1.10222 -0.54637,-0.69282 -1.09899,-1.38015 -1.64697,-2.07175 -0.40641,-0.66228 -0.53806,-1.34141 -0.7089,-2.09639 -0.20245,-0.77708 -0.33156,-1.5311 -0.37038,-2.331 -0.10575,-0.57397 -0.82805,-0.95544 -0.81743,-1.59637 -0.35762,-1.11706 -0.52935,-2.22981 -0.61269,-3.39961 -0.275,-1.50696 -0.70353,-2.97851 -1.04693,-4.46973 -0.36988,-1.10627 -0.82504,-2.18376 -1.06523,-3.32968 -0.39251,-1.14453 -0.84196,-2.27221 -1.35669,-3.36671 -0.45754,-1.21207 -0.98259,-2.41745 -1.73441,-3.47819 -0.68138,-1.11647 -1.23449,-2.31572 -2.01873,-3.36965 -0.82195,-1.23502 -1.49123,-2.5803 -1.998,-3.97413 -0.68947,-1.55711 -1.37508,-3.11533 -2.0655,-4.6718 -0.34331,-0.81009 -0.65702,-1.62887 -1.18047,-2.34556 -0.55747,-0.74949 -1.12417,-1.4993 -1.81917,-2.12875 -1.06449,-1.03802 -2.31495,-1.87842 -3.26541,-3.03502 -1.24926,-1.41679 -2.4441,-2.88147 -3.719,-4.27559 -1.09309,-1.12531 -2.22234,-2.24109 -3.09138,-3.55489 -0.37051,-0.68384 -0.55085,-1.23406 -0.4538,-2.0063 0.0443,-0.80707 0.0511,-1.61465 0.0591,-2.42276 -0.0124,-0.80665 -0.0273,-1.58668 -0.52486,-2.26906 -0.97826,-1.22088 -2.38883,-1.85993 -3.72244,-2.61605 -1.03717,-0.77072 -1.99019,-1.64377 -2.9505,-2.50722 -0.9452,-0.93308 -1.975,-1.76116 -3.05487,-2.53511 -1.02247,-0.80808 -2.02303,-1.63657 -2.95609,-2.54832 -0.48304,-0.46626 -0.86166,-1.03087 -1.43019,-1.40607 -1.13304,-0.76471 -2.24401,-1.56061 -3.33918,-2.3789 -0.81152,-0.53949 -1.64356,-1.03997 -2.33608,-1.73753 -1.00822,-0.8219 -2.09292,-1.54982 -3.31423,-2.01676 -0.76007,-0.35254 -1.53553,-0.67482 -2.25199,-1.10747 -0.49905,-0.191 -1.0418,-0.28285 -1.45727,-0.70256 -0.55622,-0.31816 -1.16646,-0.54883 -1.6431,-1.00486 -0.5529,-0.35581 -1.20827,-0.42852 -1.74426,-0.83419 -0.96476,-0.540583 -1.99635,-0.934001 -2.9642,-1.471323 -1.24023,-0.609735 -2.48533,-1.209456 -3.7171,-1.836253 -1.1891,-0.669913 -2.37898,-1.33845 -3.56532,-2.013027 -1.00347,-0.536888 -1.93542,-1.192788 -2.97056,-1.671686 -1.72667,-0.958668 -3.45432,-1.951304 -5.29284,-2.677137 -1.37859,-0.514664 -2.78495,-0.941469 -4.15551,-1.477851 -1.02919,-0.424459 -2.0279,-0.916088 -3.05706,-1.338892 -0.82675,-0.376548 -1.64573,-0.779163 -2.46733,-1.155754 -0.0339,-0.01403 -0.47185,-0.200246 -0.50966,-0.196684 -0.0471,0.0044 -0.0223,0.117452 -0.0692,0.124016 -0.23649,0.03312 -0.5414,-0.230274 -0.75701,-0.280537 -0.91687,-0.538612 -1.79741,-1.137168 -2.64132,-1.784352 -1.79262,-1.220211 -3.67571,-2.276489 -5.57724,-3.316313 -1.20233,-0.661806 -2.40371,-1.320649 -3.62091,-1.953716 -1.38113,-0.775003 -2.80288,-1.473475 -4.20698,-2.204854 -1.14103,-0.443138 -2.35795,-0.722309 -3.40027,-1.386361 -1.06785,-0.559494 -2.20088,-0.991726 -3.3258,-1.421176 -1.0745,-0.340332 -2.12718,-0.749733 -3.26683,-0.815352 -1.1338,0.0168 -2.2681,0.0087 -3.40121,-0.0373 -0.85837,-0.06953 -1.71428,-0.168272 -2.50957,-0.52392 -0.64519,-0.263581 -1.24799,-0.0065 -1.97719,-0.08785 -0.80483,0.01004 -1.6096,0.02602 -2.4145,0.02489 -0.55053,0.0018 -1.10473,-0.0019 -1.64582,-0.117006 -0.72544,-0.151876 -1.42631,-0.399328 -2.0973,-0.713873 -0.65094,-0.300066 -1.33392,-0.526735 -1.96622,-0.876926 -1.03564,-0.128884 -2.04123,-0.493446 -3.10476,-0.422005 -1.74371,-0.145392 -3.47941,-0.367007 -5.22053,-0.53889 0,0 13.28311,-9.400616 13.28311,-9.400616 z"
       inkscape:connector-curvature="0" />
    <path
       style="fill:#00ff00;fill-opacity:1;stroke:#000000;stroke-width:1.20000005;stroke-linecap:square;stroke-miterlimit:4;stroke-dasharray:none;stroke-opacity:1"
       id="path4988"
       d="m 367.79744,60.240592 c 1.64508,0.270681 3.30941,0.399645 4.97381,0.470274 0.86859,0.03277 1.73783,0.01621 2.60678,0.01866 0.95015,7.4e-5 1.9001,-0.003 2.85026,-0.0059 1.03612,0.0081 2.07217,0.0052 3.10828,0.0036 1.0842,10e-4 2.15586,-0.07565 3.21614,0.169995 1.45467,0.25562 2.89188,0.635855 4.29505,1.100392 1.6392,0.811852 3.32624,1.528946 4.9622,2.35025 1.25712,0.629037 2.51752,1.248785 3.77077,1.891037 1.01968,0.286449 1.78932,1.053025 2.72041,1.50344 0.81817,0.506629 1.64045,0.956999 2.42593,1.516157 1.20256,0.73429 2.31268,1.642297 3.44979,2.483126 1.78174,1.00106 3.54507,2.027443 5.36316,2.961111 1.36443,0.46554 2.57444,1.224524 3.85178,1.870892 1.40047,0.555897 2.82452,1.050178 4.19003,1.690086 1.68056,0.671106 3.40909,1.220981 5.06974,1.943589 1.14111,0.270137 1.99377,1.041529 2.96033,1.633696 0.20009,0.122586 1.40343,0.716723 1.5622,0.795949 2.25332,1.184838 4.46121,2.398016 6.5863,3.810586 2.07685,1.342775 4.08764,2.780963 6.10843,4.205048 1.27347,0.948563 2.69197,1.699205 3.86902,2.7667 1.08983,0.905095 2.12776,1.882476 3.24621,2.762437 1.69762,1.433133 3.61334,2.563438 5.38671,3.889893 1.6859,1.24782 3.43285,2.40417 5.14421,3.61194 1.01697,0.60927 2.01414,1.20429 2.95748,1.90665 1.91031,1.29328 3.74026,2.67742 5.44842,4.22829 1.80591,1.8351 3.687,3.58602 5.6018,5.30607 1.1647,0.97864 2.33424,1.94835 3.60601,2.78444 0,0 -13.66274,8.68235 -13.66274,8.68235 l 0,0 c -1.23594,-0.95918 -2.42034,-1.98199 -3.61788,-2.98852 -1.91109,-1.72608 -3.77413,-3.49389 -5.61251,-5.29682 -1.68675,-1.49803 -3.52401,-2.79452 -5.46746,-3.9418 -1.01151,-0.59837 -1.93302,-1.3417 -2.91743,-1.98419 -1.70601,-1.20827 -3.40139,-2.42807 -5.0815,-3.67276 -1.84199,-1.28562 -3.73739,-2.49835 -5.50197,-3.89293 -1.14366,-0.89769 -2.23003,-1.86188 -3.35216,-2.78573 -1.17532,-0.95887 -2.44417,-1.80136 -3.65148,-2.719077 -1.99571,-1.421348 -3.98839,-2.847386 -6.04704,-4.177591 -2.10221,-1.36578 -4.31771,-2.494298 -6.56132,-3.607793 -1.49949,-0.765666 -2.86609,-1.77101 -4.47411,-2.315607 -1.69854,-0.664907 -3.42217,-1.263578 -5.10869,-1.959339 -1.43133,-0.584047 -2.89759,-1.085877 -4.29934,-1.737717 -1.2471,-0.651741 -2.4328,-1.417343 -3.74475,-1.948493 -1.87264,-0.983808 -3.71481,-2.034303 -5.51801,-3.139402 -1.1565,-0.809221 -2.29986,-1.641524 -3.51347,-2.364179 -0.7926,-0.479531 -1.58055,-0.964837 -2.38375,-1.427221 -0.84905,-0.5575 -1.72369,-1.04972 -2.65393,-1.462037 -1.21976,-0.64453 -2.44013,-1.288803 -3.67521,-1.903236 -1.58674,-0.749684 -3.16293,-1.559026 -4.83198,-2.106749 -1.37867,-0.347814 -2.74546,-0.756147 -4.17216,-0.859978 -1.0455,0.01 -2.09084,0.02282 -3.1364,0.01269 -1.03964,-0.0013 -2.07923,-0.0039 -3.11886,0.0065 -0.95203,-3.65e-4 -1.9039,0.0012 -2.85587,-7e-6 -0.87579,-0.0038 -1.75031,-0.03915 -2.62122,-0.138109 -1.68013,-0.159517 -3.3541,-0.370172 -5.03312,-0.540089 0,0 13.28311,-9.400617 13.28311,-9.400617 z"
       inkscape:connector-curvature="0"
       inkscape:export-filename="/home/martin/fused_arc_pivot_more.eps"
       inkscape:export-xdpi="600"
       inkscape:export-ydpi="600" />
    <flowRoot
       xml:space="preserve"
       id="flowRoot4990"
       style="fill:black;stroke:none;stroke-opacity:1;stroke-width:1px;stroke-linejoin:miter;stroke-linecap:butt;fill-opacity:1;font-family:sans-serif;font-style:normal;font-weight:normal;font-size:40px;line-height:125%;letter-spacing:0px;word-spacing:0px"><flowRegion
         id="flowRegion4992"><rect
           id="rect4994"
           width="762.5"
           height="476.3158"
           x="-42.763157"
           y="16.83589" /></flowRegion><flowPara
         id="flowPara4996"></flowPara></flowRoot>    <path
       style="fill:#ffff00;fill-opacity:1;stroke:#000000;stroke-width:1.20000005;stroke-linecap:square;stroke-miterlimit:4;stroke-dasharray:none;stroke-opacity:1"
       id="path5000"
       d="m 484.18639,158.10559 c 1.67373,0.13827 3.376,-0.0914 5.04082,0.17962 1.12528,0.18321 1.70067,0.44831 2.75488,0.83373 2.0965,0.98571 4.24159,1.87866 6.27261,2.99581 1.78335,1.05206 3.43841,2.28517 5.01627,3.62109 1.12082,1.10966 2.33585,2.1119 3.20785,3.43979 0.66418,0.80211 1.24189,1.66828 1.87678,2.49365 0.56946,0.74279 1.22595,1.41089 1.87352,2.0843 0.56222,0.51848 1.09076,0.97812 1.42972,1.66796 0.18073,0.57425 0.45956,1.09077 0.6309,1.67416 -0.63525,-6.41896 -3.4506,1.03342 -13.4878,6.41986 -0.31128,0.16704 0.46534,-0.53523 0.65415,-0.8338 0.45738,-0.72328 0.79271,-1.59339 1.12719,-2.37486 0.81231,-2.03965 1.5891,-4.09322 2.36644,-6.14638 0.49947,-1.07036 0.58699,-2.2764 0.98129,-3.3734 0.33053,-0.87637 0.66816,-1.7493 0.96356,-2.64298 0.42648,-1.1852 0.98928,-2.31084 1.48197,-3.46826 0.4215,-1.44384 1.12647,-2.75618 1.81967,-4.07984 0.4488,-0.55454 0.48199,-1.34544 0.86275,-1.92505 0.10684,-0.30435 0.10593,-0.62616 0.097,-0.94429 -0.25159,-0.60279 -0.10112,-0.60379 0.17941,-1.02378 0,0 15.02258,-6.57704 15.02258,-6.57704 l 0,0 c -0.23381,0.35484 -0.22885,0.72573 -0.59586,0.12501 0.004,0.41584 0.0363,0.82965 0.0287,1.24548 0.0122,0.85527 -0.52128,1.63915 -0.76769,2.43707 -0.68806,1.27246 -1.52068,2.47758 -1.90941,3.88645 -0.39379,1.2032 -0.95062,2.31604 -1.43509,3.47694 -0.2233,0.47453 -0.2957,0.97519 -0.51863,1.44574 -0.0557,0.11766 -0.16592,0.20852 -0.2042,0.33296 -0.47227,1.53553 0.29294,-0.2661 -0.20499,0.84754 -0.1022,0.23764 -0.28271,0.43854 -0.37061,0.68184 -0.31525,0.87265 -0.34723,1.87788 -0.7553,2.72987 -0.77682,2.09031 -1.61636,4.15239 -2.45054,6.22076 -0.13754,0.37208 -1.22644,3.53466 -1.4215,3.66585 -1.09401,0.73581 -11.76421,13.28538 -15.84868,7.66364 -0.10611,-0.51522 -0.36144,-0.9749 -0.53724,-1.43788 -0.11087,-0.49007 -0.81478,-0.77303 -1.04619,-1.1968 -0.70985,-0.7215 -1.41529,-1.4515 -2.01286,-2.27107 -0.60778,-0.88234 -1.26458,-1.7263 -1.89959,-2.58749 -0.7524,-1.19751 -1.87552,-2.07835 -2.85419,-3.08219 -1.51369,-1.25123 -3.10663,-2.39728 -4.83159,-3.34394 -1.97069,-1.02116 -3.97562,-2.00083 -6.04461,-2.80501 -2.50785,-0.70106 -5.07363,-0.5948 -7.65782,-0.4892 0,0 13.16628,-9.56586 13.16628,-9.56586 z"
       inkscape:connector-curvature="0" />
  </g>
</svg>
