<?xml version="1.0" encoding="UTF-8" standalone="no"?>
<!-- Created with Inkscape (http://www.inkscape.org/) -->

<svg
   xmlns:dc="http://purl.org/dc/elements/1.1/"
   xmlns:cc="http://creativecommons.org/ns#"
   xmlns:rdf="http://www.w3.org/1999/02/22-rdf-syntax-ns#"
   xmlns:svg="http://www.w3.org/2000/svg"
   xmlns="http://www.w3.org/2000/svg"
   xmlns:sodipodi="http://sodipodi.sourceforge.net/DTD/sodipodi-0.dtd"
   xmlns:inkscape="http://www.inkscape.org/namespaces/inkscape"
   width="210mm"
   height="297mm"
   viewBox="0 0 744.09448819 1052.3622047"
   id="svg2"
   version="1.1"
   inkscape:version="0.91 r13725"
   sodipodi:docname="seperated_base.svg">
  <defs
     id="defs4" />
  <sodipodi:namedview
     id="base"
     pagecolor="#ffffff"
     bordercolor="#666666"
     borderopacity="1.0"
     inkscape:pageopacity="0.0"
     inkscape:pageshadow="2"
     inkscape:zoom="1.01"
     inkscape:cx="315.01769"
     inkscape:cy="704.05056"
     inkscape:document-units="px"
     inkscape:current-layer="layer1"
     showgrid="false"
     inkscape:window-width="1920"
     inkscape:window-height="1015"
     inkscape:window-x="0"
     inkscape:window-y="0"
     inkscape:window-maximized="1" />
  <metadata
     id="metadata7">
    <rdf:RDF>
      <cc:Work
         rdf:about="">
        <dc:format>image/svg+xml</dc:format>
        <dc:type
           rdf:resource="http://purl.org/dc/dcmitype/StillImage" />
        <dc:title></dc:title>
      </cc:Work>
    </rdf:RDF>
  </metadata>
  <g
     inkscape:label="Layer 1"
     inkscape:groupmode="layer"
     id="layer1">
    <path
       style="fill:#000000;fill-opacity:1;stroke:#000000;stroke-width:1.20000005;stroke-linecap:square;stroke-miterlimit:4;stroke-dasharray:none;stroke-opacity:1"
       d="m 85.991144,28.012365 47.835926,-0.990099 -15.84159,319.999984 -7.24187,0 z"
       id="rect4138-3-3"
       inkscape:connector-curvature="0"
       sodipodi:nodetypes="ccccc"
       inkscape:export-xdpi="600"
       inkscape:export-ydpi="600" />
    <rect
       style="fill:#00807b;fill-opacity:1;stroke:#000000;stroke-width:1.20000005;stroke-linecap:square;stroke-miterlimit:4;stroke-dasharray:none;stroke-opacity:1"
       id="rect4136"
       width="60"
       height="34.285713"
       x="82.008484"
       y="237.28441"
       inkscape:export-xdpi="600"
       inkscape:export-ydpi="600" />
    <path
       style="fill:#000000;fill-opacity:1;stroke:#000000;stroke-width:1.20000005;stroke-linecap:square;stroke-miterlimit:4;stroke-dasharray:none;stroke-opacity:1"
       d="m 570.22635,34.936459 47.83593,-0.990099 -15.84159,159.99999 17.82178,159.0099 -50.80622,-0.9901 17.32673,-158.51485 z"
       id="rect4138-3"
       inkscape:connector-curvature="0"
       sodipodi:nodetypes="ccccccc"
       inkscape:export-xdpi="600"
       inkscape:export-ydpi="600" />
    <rect
       style="fill:#00807b;fill-opacity:1;stroke:#000000;stroke-width:1.20000005;stroke-linecap:square;stroke-miterlimit:4;stroke-dasharray:none;stroke-opacity:1"
       id="rect4136-6"
       width="60"
       height="34.285713"
       x="565.04956"
       y="54.766716"
       inkscape:export-xdpi="600"
       inkscape:export-ydpi="600" />
    <rect
       style="fill:#000000;fill-opacity:1;stroke:#000000;stroke-width:1.20000005;stroke-linecap:square;stroke-miterlimit:4;stroke-dasharray:none;stroke-opacity:1"
       id="rect4138-7"
       width="17.142857"
       height="320"
       x="-297.91931"
       y="198.91173"
       transform="matrix(0.00846701,-0.99996415,0.99996415,0.00846701,0,0)"
       inkscape:export-xdpi="600"
       inkscape:export-ydpi="600" />
    <rect
       style="fill:#00807b;fill-opacity:1;stroke:#000000;stroke-width:1.20000005;stroke-linecap:square;stroke-miterlimit:4;stroke-dasharray:none;stroke-opacity:1"
       id="rect4136-5"
       width="60"
       height="34.285713"
       x="-315.71603"
       y="364.24356"
       transform="matrix(0.00846701,-0.99996415,0.99996415,0.00846701,0,0)"
       inkscape:export-xdpi="600"
       inkscape:export-ydpi="600" />
    <text
       xml:space="preserve"
       style="font-style:normal;font-weight:normal;font-size:40px;line-height:125%;font-family:sans-serif;letter-spacing:0px;word-spacing:0px;fill:#000000;fill-opacity:1;stroke:none;stroke-width:1px;stroke-linecap:butt;stroke-linejoin:miter;stroke-opacity:1"
       x="267.32672"
       y="361.27307"
       id="text4185"
       sodipodi:linespacing="125%"
       inkscape:export-xdpi="600"
       inkscape:export-ydpi="600"><tspan
         sodipodi:role="line"
         id="tspan4187"
         x="267.32672"
         y="361.27307">Steering</tspan></text>
    <text
       xml:space="preserve"
       style="font-style:normal;font-weight:normal;font-size:40px;line-height:125%;font-family:sans-serif;letter-spacing:0px;word-spacing:0px;fill:#000000;fill-opacity:1;stroke:none;stroke-width:1px;stroke-linecap:butt;stroke-linejoin:miter;stroke-opacity:1"
       x="24.752464"
       y="387.01566"
       id="text4189"
       sodipodi:linespacing="125%"
       inkscape:export-xdpi="600"
       inkscape:export-ydpi="600"><tspan
         sodipodi:role="line"
         id="tspan4191"
         x="24.752464"
         y="387.01566">Distance</tspan></text>
    <text
       xml:space="preserve"
       style="font-style:normal;font-weight:normal;font-size:40px;line-height:125%;font-family:sans-serif;letter-spacing:0px;word-spacing:0px;fill:#000000;fill-opacity:1;stroke:none;stroke-width:1px;stroke-linecap:butt;stroke-linejoin:miter;stroke-opacity:1"
       x="534.6535"
       y="388.99588"
       id="text4193"
       sodipodi:linespacing="125%"
       inkscape:export-xdpi="600"
       inkscape:export-ydpi="600"><tspan
         sodipodi:role="line"
         id="tspan4195"
         x="534.6535"
         y="388.99588">Power</tspan></text>
    <text
       xml:space="preserve"
       style="font-style:normal;font-weight:normal;font-size:40px;line-height:125%;font-family:sans-serif;letter-spacing:0px;word-spacing:0px;fill:#000000;fill-opacity:1;stroke:none;stroke-width:1px;stroke-linecap:butt;stroke-linejoin:miter;stroke-opacity:1"
       x="278.2178"
       y="394.93646"
       id="text4213"
       sodipodi:linespacing="125%"
       inkscape:export-xdpi="600"
       inkscape:export-ydpi="600"><tspan
         sodipodi:role="line"
         id="tspan4215"
         x="278.2178"
         y="394.93646"
         style="font-size:30px">30 degrees</tspan></text>
    <text
       xml:space="preserve"
       style="font-style:normal;font-weight:normal;font-size:40px;line-height:125%;font-family:sans-serif;letter-spacing:0px;word-spacing:0px;fill:#000000;fill-opacity:1;stroke:none;stroke-width:1px;stroke-linecap:butt;stroke-linejoin:miter;stroke-opacity:1"
       x="83.16832"
       y="423.64932"
       id="text4217"
       sodipodi:linespacing="125%"
       inkscape:export-xdpi="600"
       inkscape:export-ydpi="600"><tspan
         sodipodi:role="line"
         id="tspan4219"
         x="83.16832"
         y="423.64932"
         style="font-size:30px">1 m</tspan></text>
    <text
       xml:space="preserve"
       style="font-style:normal;font-weight:normal;font-size:40px;line-height:125%;font-family:sans-serif;letter-spacing:0px;word-spacing:0px;fill:#000000;fill-opacity:1;stroke:none;stroke-width:1px;stroke-linecap:butt;stroke-linejoin:miter;stroke-opacity:1"
       x="559.40594"
       y="420.67902"
       id="text4221"
       sodipodi:linespacing="125%"
       inkscape:export-xdpi="600"
       inkscape:export-ydpi="600"><tspan
         sodipodi:role="line"
         id="tspan4223"
         x="559.40594"
         y="420.67902"
         style="font-size:30px">90%</tspan></text>
    <path
       sodipodi:type="star"
       style="fill:#00ff00;fill-opacity:1;stroke:#000000;stroke-width:1.20000005;stroke-linecap:square;stroke-miterlimit:4;stroke-dasharray:none;stroke-opacity:1"
       id="path4235"
       sodipodi:sides="3"
       sodipodi:cx="289.10892"
       sodipodi:cy="547.41169"
       sodipodi:r1="44.565456"
       sodipodi:r2="22.282728"
       sodipodi:arg1="0.022218565"
       sodipodi:arg2="1.0694161"
       inkscape:flatsided="true"
       inkscape:rounded="0"
       inkscape:randomized="0"
       d="m 333.66337,548.40178 -67.68913,37.10014 1.7149,-77.17058 z"
       inkscape:transform-center-x="-10.709888"
       inkscape:transform-center-y="-0.4950495"
       inkscape:export-xdpi="600"
       inkscape:export-ydpi="600" />
    <path
       sodipodi:type="star"
       style="fill:#ff0000;fill-opacity:1;stroke:#000000;stroke-width:1.20000005;stroke-linecap:square;stroke-miterlimit:4;stroke-dasharray:none;stroke-opacity:1"
       id="path4237"
       sodipodi:sides="8"
       sodipodi:cx="202.97029"
       sodipodi:cy="66.223582"
       sodipodi:r1="42.122868"
       sodipodi:r2="38.916454"
       sodipodi:arg1="0.41106455"
       sodipodi:arg2="0.80376363"
       inkscape:flatsided="true"
       inkscape:rounded="0"
       inkscape:randomized="0"
       d="m 241.58415,83.055263 -23.21153,22.374237 -32.23401,-0.59206 -22.37424,-23.211534 0.59206,-32.23401 23.21153,-22.374239 32.23401,0.59206 22.37424,23.211536 z"
       inkscape:export-xdpi="600"
       inkscape:export-ydpi="600" />
    <flowRoot
       xml:space="preserve"
       id="flowRoot4255"
       style="fill:black;stroke:none;stroke-opacity:1;stroke-width:1px;stroke-linejoin:miter;stroke-linecap:butt;fill-opacity:1;font-family:sans-serif;font-style:normal;font-weight:normal;font-size:40px;line-height:125%;letter-spacing:0px;word-spacing:0px"
       inkscape:export-xdpi="600"
       inkscape:export-ydpi="600"><flowRegion
         id="flowRegion4257"><rect
           id="rect4259"
           width="711.88116"
           height="445.54456"
           x="5.9405942"
           y="4.8374524" /></flowRegion><flowPara
         id="flowPara4261"></flowPara></flowRoot>    <path
       style="fill:#000080;fill-opacity:1;stroke:#000000;stroke-width:1.20000005;stroke-linecap:square;stroke-miterlimit:4;stroke-dasharray:none;stroke-opacity:1"
       id="path4263"
       d="m 338.6081,241.00695 c 0.19559,-3.39554 0.0856,-6.79778 0.0347,-10.19574 -0.0121,-1.74885 -0.0513,-3.49716 -0.0969,-5.24533 -0.0241,-1.05078 -0.002,-2.10273 0.006,-3.15392 -0.0171,-1.17492 -0.006,-2.34968 0.0105,-3.52457 -0.0135,-1.30546 -0.0104,-2.61063 0.004,-3.91608 0.0312,-1.64258 0.006,-3.2851 0.009,-4.92775 -0.0316,-1.49703 0.012,-2.99416 -0.006,-4.49123 -0.0215,-1.17336 -0.0156,-2.34662 -0.0269,-3.51999 0.005,-1.23632 0.0241,-2.47287 0.0115,-3.70918 0.0356,-1.84439 0.0376,-3.68934 0.0635,-5.53394 0.0106,-2.09875 -0.0171,-4.19713 -0.0259,-6.29585 -0.0437,-1.57142 -7.2e-4,-3.14334 -0.0215,-4.71492 -3.4e-4,-1.69303 -0.0471,-3.38542 0.1787,-5.0664 0.33507,-1.6777 0.65293,-3.35156 1.06373,-5.01224 0.37304,-1.59245 0.74718,-3.17832 1.1844,-4.7553 0.29475,-1.45929 0.52057,-2.90649 0.98153,-4.32706 0.28451,-1.26553 0.61002,-2.50666 1.00053,-3.74508 0.36025,-1.74121 0.66997,-3.46842 1.2604,-5.15334 0.66065,-1.87569 1.06322,-3.8249 1.61603,-5.73431 0.7266,-2.1504 1.34811,-4.33712 1.97634,-6.51867 0.57516,-1.99149 1.25564,-3.95063 1.81538,-5.94785 0.57323,-1.92222 0.55846,-3.94108 0.95646,-5.89255 0.51115,-2.09099 0.84307,-4.21865 1.29218,-6.32393 0.3148,-1.78566 0.99493,-3.42369 1.74576,-5.0536 0.4566,-0.74809 0.59172,-1.58989 0.70326,-2.44048 -0.0831,-1.44226 0.83241,-2.70882 1.44312,-3.96334 0.81055,-1.1686 1.51245,-2.39486 2.20678,-3.63412 0.93561,-1.50867 1.47775,-3.17559 1.96464,-4.86695 0.24328,-1.42872 0.65383,-2.81935 1.28629,-4.123944 1.01116,-1.842511 1.73915,-3.821743 2.46656,-5.788657 0.54323,-2.048159 1.58834,-3.915695 2.46721,-5.837467 0.99608,-2.262204 1.6205,-4.637368 2.64327,-6.889205 1.12835,-2.660243 2.31949,-5.288647 3.62291,-7.868395 0.92958,-1.817647 1.64886,-3.710451 2.56682,-5.536749 0.68191,-1.196046 0.84065,-2.820089 1.77108,-3.848829 0.85555,-0.929864 1.56893,-1.763335 1.95197,-2.985502 0.51726,-1.508188 1.37819,-2.743621 2.35148,-3.993981 1.35107,-1.786266 2.56486,-3.691152 4.02333,-5.394114 0.4218,-0.816583 0.98912,-1.543897 1.53629,-2.278335 0.26573,-0.259423 0.74898,0.181416 0.93379,-0.174766 0.14337,-0.276325 0.15098,-0.607809 0.28112,-0.890607 7.09792,-4.222114 14.19585,-8.444228 21.29377,-12.666342 0.22219,-0.135332 0.56554,0.106609 0.79415,-0.02717 0.11476,-0.06716 0.14085,-0.227367 0.23051,-0.325552 0.0899,-0.09848 0.41979,-0.326362 0.30416,-0.259917 -20.99551,12.064653 -28.67083,10.812596 -20.38464,12.076353 0.32534,-0.147753 0.18447,-0.05517 0.43024,-0.265798 0,0 22.48704,-10.151158 22.48704,-10.151158 l 0,0 c -0.12923,0.525702 -0.0608,0.247585 -0.20519,0.834348 -1.51511,8.787894 -14.17046,10.94072 -22.37051,13.187957 -0.15952,0.04372 -0.37037,0.321237 -0.4604,0.422938 6.88318,-4.1013 13.77592,-8.186601 20.64954,-12.303901 0.0874,-0.05234 -0.18763,0.0817 -0.28644,0.106402 -0.10602,0.0265 -0.26082,-0.04245 -0.32454,0.04633 -0.30009,0.418094 0.18686,1.219126 -0.38702,1.537892 -0.86357,0.01843 -1.42599,0.701925 -2.0441,1.252038 -1.02108,2.052398 -2.96637,3.539551 -4.10399,5.538277 -0.17213,0.273252 -0.8596,1.424588 -1.16825,1.721759 -0.13314,0.128196 -0.37149,0.122921 -0.48496,0.268824 -0.29563,0.380153 -0.29745,1.199789 -0.78038,1.503821 -0.6889,1.135472 -0.50871,2.658129 -1.62754,3.574716 -1.16643,1.576569 0.52549,-0.540279 -0.77915,0.593062 -0.70882,0.615752 -0.9658,1.903798 -1.38041,2.69094 -0.4896,1.299602 -1.33005,2.377511 -1.75568,3.583217 -0.13333,0.37768 -0.16985,0.785161 -0.30481,1.162262 -0.12558,0.350904 -0.31573,0.675224 -0.4736,1.012836 -1.44392,2.472099 -2.79188,5.031384 -3.71798,7.745941 -1.06889,2.226583 -1.94972,4.477711 -2.65989,6.845853 -0.47948,1.115186 -1.00454,2.20828 -1.49141,3.317032 -0.13892,0.316375 -0.19871,0.666479 -0.35988,0.972122 -0.10666,0.202267 -0.33252,0.326597 -0.4332,0.531904 -0.10651,0.217178 -0.11548,0.469791 -0.17322,0.704686 -0.56827,2.134575 -1.62583,4.096072 -2.29798,6.193714 -0.63827,1.119745 -1.30757,2.248514 -1.51953,3.531349 -0.32743,1.849133 -0.93102,3.67719 -1.68267,5.393952 -0.60448,1.347228 -1.29579,2.694384 -2.18376,3.871434 -0.70406,0.84891 -0.96023,2.21062 -1.85906,2.77589 0.018,1.10219 -0.0906,2.20704 -0.35881,3.27729 -0.68394,1.60844 -1.71598,3.02804 -2.10971,4.76166 -0.59732,2.04832 -0.73979,4.15877 -1.19017,6.22906 -0.13898,0.52902 -0.35138,1.03963 -0.45371,1.57694 -0.2745,1.4412 -0.13823,2.96264 -0.55191,4.38724 -0.45121,2.01671 -1.00009,4.03073 -1.75619,5.95338 -0.54897,2.26094 -1.43285,4.42079 -1.92343,6.69797 -0.76496,1.84481 -1.0794,3.81208 -1.59325,5.73451 -0.56861,1.61444 -1.2763,3.15945 -1.28279,4.90888 -0.2497,1.2987 -0.81132,2.46761 -0.97643,3.77252 -0.31017,1.46025 -1.06714,2.759 -1.03948,4.28675 -0.32963,1.6309 -0.97571,3.16447 -1.16854,4.82172 -0.46282,1.62104 -0.88133,3.21164 -1.12128,4.88187 -0.44294,1.5287 -0.44963,3.025 -0.38514,4.61478 -0.0206,1.5789 0.0219,3.15813 -0.0215,4.73687 -0.009,2.10752 -0.0364,4.2147 -0.0259,6.32225 0.026,1.82301 0.0279,3.6464 0.0635,5.46919 -0.0125,1.2324 0.007,2.46504 0.0115,3.69746 -0.0113,1.1825 -0.006,2.36493 -0.0269,3.54744 -0.0181,1.49921 0.0251,2.99848 -0.006,4.49765 0.004,1.63951 -0.022,3.2789 0.009,4.91835 0.0144,1.30414 0.0172,2.608 0.004,3.91216 0.0162,1.17133 0.0275,2.34252 0.0105,3.51389 0.008,1.04908 0.0303,2.09887 0.006,3.14756 -0.0453,1.7811 -0.0845,3.56233 -0.0969,5.34409 -0.0499,3.38608 -0.16285,6.77685 0.0347,10.16033 0,0 -21.7937,11.10445 -21.7937,11.10445 z"
       inkscape:connector-curvature="0"
       inkscape:export-xdpi="600"
       inkscape:export-ydpi="600" />
    <path
       style="fill:#000080;fill-opacity:1;stroke:#000000;stroke-width:1.20000005;stroke-linecap:square;stroke-miterlimit:4;stroke-dasharray:none;stroke-opacity:1"
       id="path4265"
       d="m 380.16169,52.094826 c 3.85507,0.181771 7.68144,-0.860136 11.30795,-2.075866 9.07661,-2.913476 24.13883,-12.688942 -12.61776,8.311267 2.34389,-1.239291 4.18093,-3.078496 5.92744,-5.030275 1.02343,-1.498444 2.35203,-2.779965 3.3514,-4.287712 0.88207,-1.001695 1.94003,-1.808194 2.97538,-2.656084 0.9033,-0.729374 1.69658,-1.622505 2.56209,-2.425113 13.1829,-12.346967 18.28646,-18.579992 26.19001,-9.225672 2.39153,3.211485 4.15934,6.780389 5.99429,10.318583 0.85242,1.461879 1.46646,3.024027 1.8467,4.668232 0.20908,0.912224 0.14558,1.859588 0.11773,2.787571 0.0147,1.148087 0.44317,2.252291 0.68921,3.368364 0.24075,1.084504 0.24182,2.201274 0.27618,3.306163 0.0404,0.533189 0.396,1.081757 0.62424,1.578416 0.34805,0.653791 -0.0983,0.800828 0.63251,1.141977 0.67209,0.517218 1.14067,1.401993 1.45491,2.186845 0,0 -21.64678,11.83169 -21.64678,11.83169 l 0,0 c -0.10048,-0.455224 -0.43873,-0.823582 -0.82433,-1.1432 -0.44544,-0.526796 -1.23893,-1.234431 -1.15848,-1.962217 -0.29847,-0.828894 -0.71178,-1.603395 -0.99539,-2.437153 0.009,-0.977668 0.0122,-1.960028 -0.0869,-2.933513 -0.17485,-1.290609 -0.56932,-2.53672 -0.8893,-3.795915 -0.007,-0.804251 8.8e-4,-1.607876 0.0341,-2.411155 -0.09,-1.47393 -0.59641,-2.845313 -1.23193,-4.171606 -1.54884,-3.416342 -3.17117,-6.793985 -5.55829,-9.724188 -0.51325,-0.476578 -1.26332,-1.413579 -2.11067,-1.480357 -0.20369,-0.01605 -0.71461,0.396403 -0.53818,0.29337 32.53313,-18.998804 26.15476,-16.890167 19.97369,-11.497093 -0.90058,0.787237 -1.98208,1.489456 -2.57953,2.520154 -0.69052,0.59657 -1.36343,1.238034 -2.13659,1.730439 -0.16007,0.101947 -0.36165,0.139667 -0.50355,0.265688 -0.15964,0.141781 -0.25195,0.344776 -0.37793,0.517163 -0.73919,0.402938 -0.94729,0.96452 -1.52158,1.563657 -0.75953,0.792392 -1.55356,1.525894 -2.12036,2.498806 -1.59509,2.168999 -3.37312,4.300729 -5.62962,5.794262 -9.92608,5.719914 -18.48169,12.297124 -29.29638,15.285088 -3.91864,0.995718 -7.88269,1.773431 -11.94883,1.685528 0,0 19.81459,-14.396144 19.81459,-14.396144 z"
       inkscape:connector-curvature="0"
       inkscape:export-xdpi="600"
       inkscape:export-ydpi="600" />
    <path
       style="fill:#00ff00;fill-opacity:1;stroke:#000000;stroke-width:1.20000005;stroke-linecap:square;stroke-miterlimit:4;stroke-dasharray:none;stroke-opacity:1"
       id="path4267"
       d="m 338.70117,238.88189 c 1.22733,-4.31299 1.99458,-8.7291 2.50941,-13.17761 0.39354,-3.59612 0.90635,-7.17976 1.15696,-10.79001 0.14471,-1.38038 0.11031,-2.76641 0.13333,-4.15063 -0.0116,-0.61087 -0.005,-1.22142 -0.0285,-1.83207 0.053,-1.09114 0.0522,-2.18459 0.0259,-3.27651 -0.0271,-0.76906 -0.002,-1.53846 -0.0188,-2.3078 -0.008,-1.0987 0.0506,-2.19764 0.071,-3.29637 0.009,-1.87323 -0.0163,-3.74617 0.0136,-5.61939 0.0603,-2.09454 -0.0316,-4.18894 -0.007,-6.28355 -0.0177,-2.29371 0.0419,-4.58718 0.0499,-6.88088 -0.002,-2.61045 0.0188,-5.2211 -0.0371,-7.83116 0.0115,-1.84482 -0.0243,-3.68886 -0.0435,-5.53342 0.004,-1.45365 0.0141,-2.90719 -0.0111,-4.36068 -0.0369,-1.21273 0.0158,-2.42568 0.006,-3.63872 -0.0298,-1.23344 7e-5,-2.46582 0.002,-3.69908 -0.011,-1.81782 2.3e-4,-3.62604 0.22932,-5.43118 0.29909,-1.52066 0.38838,-3.08537 0.82572,-4.57445 0.47295,-1.96079 1.13395,-3.8319 1.94477,-5.6756 1.07285,-1.91783 1.94275,-3.93296 2.86022,-5.92637 0.74684,-1.33523 1.04667,-2.81467 1.39927,-4.28915 0.34232,-1.97778 1.00771,-3.84237 1.8184,-5.6717 0.60876,-1.3272 1.12627,-2.68758 1.52077,-4.09289 0.34342,-0.65677 0.28608,-1.40557 0.298,-2.14062 -0.12562,-1.36563 0.26512,-2.66852 0.80001,-3.91961 0.5514,-1.1812 0.91631,-2.354 1.04757,-3.65074 0.0421,-0.61031 0.0187,-0.30677 0.07,-0.91064 0,0 21.98641,-11.077084 21.98641,-11.077084 l 0,0 c -0.008,0.691594 0.008,0.34632 -0.0485,1.035821 -0.13139,1.464473 -0.0918,2.967393 -0.77643,4.304213 -0.0896,0.23721 -0.17916,0.47442 -0.26874,0.71163 -0.10598,0.16548 -0.23751,0.31715 -0.31794,0.49645 -0.16203,0.36119 -0.1181,0.80149 -0.31444,1.14525 -0.0512,0.0896 -0.22782,0.0641 -0.26472,0.16045 -0.0632,0.16497 2.4e-4,0.3533 3.5e-4,0.52996 0.0203,0.90612 0.11765,1.83828 0.0539,2.72844 -0.43183,1.5335 -0.93061,3.0609 -1.60127,4.50651 -0.74477,1.71892 -1.65987,3.35298 -1.89865,5.24052 -0.206,0.82696 -0.50952,1.6915 -0.65459,2.52703 -0.1353,0.77919 -0.0341,1.52199 -0.53995,2.20759 -0.96212,2.00614 -1.89181,4.00395 -2.86906,6.00061 -0.93611,1.6263 -1.81285,3.37757 -2.05423,5.25708 -0.12475,0.40558 -0.34577,0.77804 -0.46255,1.18599 -0.28811,1.00648 -0.25999,2.13041 -0.56383,3.13899 -0.35168,1.67513 -0.43271,3.3196 -0.33452,5.03234 10e-4,1.23272 0.0313,2.46458 0.002,3.6975 -0.0101,1.21115 0.0425,2.42216 0.006,3.63301 -0.0249,1.45728 -0.0155,2.91459 -0.0112,4.37203 -0.0192,1.85934 -0.0549,3.71816 -0.0435,5.57775 -0.055,2.62268 -0.0353,5.24591 -0.0371,7.86896 0.008,2.27675 0.0679,4.55325 0.0499,6.83002 0.0251,2.09691 -0.0673,4.19364 -0.007,6.29047 0.0303,1.86861 0.004,3.73695 0.0136,5.60557 0.0204,1.07468 0.0796,2.1495 0.0709,3.22418 -0.0164,0.77539 0.008,1.55082 -0.0187,2.32597 -0.0247,1.07582 -0.0287,2.15366 0.0327,3.22832 -0.0152,0.62986 0.002,1.25917 -0.0101,1.88904 0.004,1.47777 -0.1375,2.95628 -0.22794,4.42983 -0.41059,3.67054 -0.93733,7.32302 -1.47789,10.97664 -0.39039,4.48251 -1.1882,8.87848 -1.96669,13.30189 0,0 -22.08129,10.57786 -22.08129,10.57786 z"
       inkscape:connector-curvature="0"
       inkscape:export-xdpi="600"
       inkscape:export-ydpi="600" />
  </g>
</svg>
